# Blender v2.72 (sub 0) OBJ File: ''
# www.blender.org
mtllib cube.mtl
o Cube
v 1.000000 -1.944315 -1.000000
v 1.000000 -1.944315 1.000000
v -1.000000 -1.944315 1.000000
v -1.000000 -1.944315 -1.000000
v 1.000000 0.055685 -0.999999
v 0.999999 0.055685 1.000001
v -1.000000 0.055685 1.000000
v -1.000000 0.055685 -1.000000
vt 0.000000 -1.000000
vt -1.000000 -1.000000
vt -1.000000 0.000000
vt -1.000000 1.000000
vt -0.000000 -0.000000
vt 0.000000 0.527843
vt -0.000000 1.527843
vt -1.000000 1.527843
vt 1.000000 1.527843
vt 1.000000 0.527843
vt 0.000000 -0.472157
vt -1.000000 -0.472157
vt -1.000000 0.527843
vt 0.000000 1.000000
vn 0.000000 -1.000000 0.000000
vn 0.000000 1.000000 0.000000
vn 1.000000 -0.000000 0.000000
vn -0.000000 -0.000000 1.000000
vn -1.000000 -0.000000 -0.000000
vn 0.000000 0.000000 -1.000000
usemtl Material
s off
f 2/1/1 3/2/1 4/3/1
f 8/4/2 7/3/2 6/5/2
f 1/6/3 5/7/3 6/8/3
f 2/6/4 6/7/4 7/8/4
f 7/7/5 8/9/5 4/10/5
f 1/11/6 4/12/6 8/13/6
f 1/5/1 2/1/1 4/3/1
f 5/14/2 8/4/2 6/5/2
f 2/13/3 1/6/3 6/8/3
f 3/13/4 2/6/4 7/8/4
f 3/6/5 7/7/5 4/10/5
f 5/6/6 1/11/6 8/13/6
